<mxfile host="app.diagrams.net" modified="2023-11-15T10:14:33.617Z" agent="Mozilla/5.0 (Windows NT 10.0; Win64; x64) AppleWebKit/537.36 (KHTML, like Gecko) Chrome/116.0.0.0 Safari/537.36" etag="YROjRlBIMAdo0Nb3lMuX" version="22.1.1" type="device">
  <diagram name="Trang-1" id="NGEWz0fwt6qbOyrjJll1">
    <mxGraphModel dx="1558" dy="699" grid="0" gridSize="10" guides="1" tooltips="1" connect="1" arrows="1" fold="1" page="1" pageScale="1" pageWidth="827" pageHeight="1169" math="0" shadow="0">
      <root>
        <mxCell id="0" />
        <mxCell id="1" parent="0" />
        <mxCell id="vQulkStZdgqkO4bHdipe-1" value="UseCase Quản lý" style="swimlane;whiteSpace=wrap;html=1;" vertex="1" parent="1">
          <mxGeometry x="94" y="270" width="669" height="860" as="geometry" />
        </mxCell>
        <mxCell id="vQulkStZdgqkO4bHdipe-5" value="Đăng nhập" style="ellipse;whiteSpace=wrap;html=1;" vertex="1" parent="vQulkStZdgqkO4bHdipe-1">
          <mxGeometry x="474" y="382" width="119" height="31" as="geometry" />
        </mxCell>
        <mxCell id="vQulkStZdgqkO4bHdipe-6" value="Quản lý tòa" style="ellipse;whiteSpace=wrap;html=1;" vertex="1" parent="vQulkStZdgqkO4bHdipe-1">
          <mxGeometry x="44" y="60" width="119" height="31" as="geometry" />
        </mxCell>
        <mxCell id="vQulkStZdgqkO4bHdipe-7" value="Quản lý tầng" style="ellipse;whiteSpace=wrap;html=1;" vertex="1" parent="vQulkStZdgqkO4bHdipe-1">
          <mxGeometry x="91" y="114" width="119" height="31" as="geometry" />
        </mxCell>
        <mxCell id="vQulkStZdgqkO4bHdipe-8" value="Quản lý phòng" style="ellipse;whiteSpace=wrap;html=1;" vertex="1" parent="vQulkStZdgqkO4bHdipe-1">
          <mxGeometry x="119" y="177" width="119" height="31" as="geometry" />
        </mxCell>
        <mxCell id="vQulkStZdgqkO4bHdipe-9" value="Quản lý hợp đồng" style="ellipse;whiteSpace=wrap;html=1;" vertex="1" parent="vQulkStZdgqkO4bHdipe-1">
          <mxGeometry x="130" y="234" width="119" height="31" as="geometry" />
        </mxCell>
        <mxCell id="vQulkStZdgqkO4bHdipe-16" value="Quản lý điện nước" style="ellipse;whiteSpace=wrap;html=1;" vertex="1" parent="vQulkStZdgqkO4bHdipe-1">
          <mxGeometry x="143" y="297" width="119" height="31" as="geometry" />
        </mxCell>
        <mxCell id="vQulkStZdgqkO4bHdipe-17" value="Quản lý tài khoản" style="ellipse;whiteSpace=wrap;html=1;" vertex="1" parent="vQulkStZdgqkO4bHdipe-1">
          <mxGeometry x="143" y="443" width="119" height="31" as="geometry" />
        </mxCell>
        <mxCell id="vQulkStZdgqkO4bHdipe-18" value="Quản lý hóa đơn" style="ellipse;whiteSpace=wrap;html=1;" vertex="1" parent="vQulkStZdgqkO4bHdipe-1">
          <mxGeometry x="155" y="366" width="119" height="31" as="geometry" />
        </mxCell>
        <mxCell id="vQulkStZdgqkO4bHdipe-19" value="Quản lý báo cáo sự cố" style="ellipse;whiteSpace=wrap;html=1;" vertex="1" parent="vQulkStZdgqkO4bHdipe-1">
          <mxGeometry x="111" y="579" width="127" height="36" as="geometry" />
        </mxCell>
        <mxCell id="vQulkStZdgqkO4bHdipe-20" value="Quản lý tin tức" style="ellipse;whiteSpace=wrap;html=1;" vertex="1" parent="vQulkStZdgqkO4bHdipe-1">
          <mxGeometry x="130" y="520" width="119" height="31" as="geometry" />
        </mxCell>
        <mxCell id="vQulkStZdgqkO4bHdipe-21" value="Quản lý thông báo" style="ellipse;whiteSpace=wrap;html=1;" vertex="1" parent="vQulkStZdgqkO4bHdipe-1">
          <mxGeometry x="91" y="637" width="119" height="31" as="geometry" />
        </mxCell>
        <mxCell id="vQulkStZdgqkO4bHdipe-22" value="Xem thống kê" style="ellipse;whiteSpace=wrap;html=1;" vertex="1" parent="vQulkStZdgqkO4bHdipe-1">
          <mxGeometry x="64" y="717" width="119" height="31" as="geometry" />
        </mxCell>
        <mxCell id="vQulkStZdgqkO4bHdipe-23" value="Thêm tòa" style="ellipse;whiteSpace=wrap;html=1;" vertex="1" parent="vQulkStZdgqkO4bHdipe-1">
          <mxGeometry x="251" y="40" width="72" height="24" as="geometry" />
        </mxCell>
        <mxCell id="vQulkStZdgqkO4bHdipe-24" value="cập nhật tòa" style="ellipse;whiteSpace=wrap;html=1;" vertex="1" parent="vQulkStZdgqkO4bHdipe-1">
          <mxGeometry x="304.5" y="68" width="95" height="27" as="geometry" />
        </mxCell>
        <mxCell id="vQulkStZdgqkO4bHdipe-25" value="Thêm tầng" style="ellipse;whiteSpace=wrap;html=1;" vertex="1" parent="vQulkStZdgqkO4bHdipe-1">
          <mxGeometry x="349" y="114" width="82" height="24" as="geometry" />
        </mxCell>
        <mxCell id="vQulkStZdgqkO4bHdipe-26" value="Cập nhật tầng" style="ellipse;whiteSpace=wrap;html=1;" vertex="1" parent="vQulkStZdgqkO4bHdipe-1">
          <mxGeometry x="279" y="145" width="95" height="25" as="geometry" />
        </mxCell>
        <mxCell id="vQulkStZdgqkO4bHdipe-27" value="Thêm hợp đồng" style="ellipse;whiteSpace=wrap;html=1;" vertex="1" parent="vQulkStZdgqkO4bHdipe-1">
          <mxGeometry x="369" y="237.5" width="95" height="24" as="geometry" />
        </mxCell>
        <mxCell id="vQulkStZdgqkO4bHdipe-28" value="Cập nhật hợp đồng" style="ellipse;whiteSpace=wrap;html=1;" vertex="1" parent="vQulkStZdgqkO4bHdipe-1">
          <mxGeometry x="267.5" y="283" width="108" height="21" as="geometry" />
        </mxCell>
        <mxCell id="vQulkStZdgqkO4bHdipe-29" value="Tìm tòa" style="ellipse;whiteSpace=wrap;html=1;" vertex="1" parent="vQulkStZdgqkO4bHdipe-1">
          <mxGeometry x="190" y="24" width="72" height="26" as="geometry" />
        </mxCell>
        <mxCell id="vQulkStZdgqkO4bHdipe-30" value="Tìm tầng" style="ellipse;whiteSpace=wrap;html=1;" vertex="1" parent="vQulkStZdgqkO4bHdipe-1">
          <mxGeometry x="262" y="95" width="79" height="26" as="geometry" />
        </mxCell>
        <mxCell id="vQulkStZdgqkO4bHdipe-31" value="Tìm phòng" style="ellipse;whiteSpace=wrap;html=1;" vertex="1" parent="vQulkStZdgqkO4bHdipe-1">
          <mxGeometry x="303" y="175" width="82" height="24" as="geometry" />
        </mxCell>
        <mxCell id="vQulkStZdgqkO4bHdipe-32" value="extend" style="endArrow=open;endSize=12;dashed=1;html=1;rounded=0;" edge="1" parent="vQulkStZdgqkO4bHdipe-1" source="vQulkStZdgqkO4bHdipe-29" target="vQulkStZdgqkO4bHdipe-6">
          <mxGeometry width="160" relative="1" as="geometry">
            <mxPoint x="371" y="274" as="sourcePoint" />
            <mxPoint x="531" y="274" as="targetPoint" />
          </mxGeometry>
        </mxCell>
        <mxCell id="vQulkStZdgqkO4bHdipe-33" value="extend" style="endArrow=open;endSize=12;dashed=1;html=1;rounded=0;" edge="1" parent="vQulkStZdgqkO4bHdipe-1" source="vQulkStZdgqkO4bHdipe-23" target="vQulkStZdgqkO4bHdipe-6">
          <mxGeometry width="160" relative="1" as="geometry">
            <mxPoint x="252" y="66" as="sourcePoint" />
            <mxPoint x="187" y="82" as="targetPoint" />
          </mxGeometry>
        </mxCell>
        <mxCell id="vQulkStZdgqkO4bHdipe-34" value="extend" style="endArrow=open;endSize=12;dashed=1;html=1;rounded=0;" edge="1" parent="vQulkStZdgqkO4bHdipe-1" source="vQulkStZdgqkO4bHdipe-24" target="vQulkStZdgqkO4bHdipe-6">
          <mxGeometry width="160" relative="1" as="geometry">
            <mxPoint x="275" y="88" as="sourcePoint" />
            <mxPoint x="203" y="91" as="targetPoint" />
          </mxGeometry>
        </mxCell>
        <mxCell id="vQulkStZdgqkO4bHdipe-35" value="extend" style="endArrow=open;endSize=12;dashed=1;html=1;rounded=0;" edge="1" parent="vQulkStZdgqkO4bHdipe-1" source="vQulkStZdgqkO4bHdipe-30" target="vQulkStZdgqkO4bHdipe-7">
          <mxGeometry width="160" relative="1" as="geometry">
            <mxPoint x="371" y="257" as="sourcePoint" />
            <mxPoint x="531" y="257" as="targetPoint" />
          </mxGeometry>
        </mxCell>
        <mxCell id="vQulkStZdgqkO4bHdipe-37" value="extend" style="endArrow=open;endSize=12;dashed=1;html=1;rounded=0;" edge="1" parent="vQulkStZdgqkO4bHdipe-1" source="vQulkStZdgqkO4bHdipe-25" target="vQulkStZdgqkO4bHdipe-7">
          <mxGeometry width="160" relative="1" as="geometry">
            <mxPoint x="273" y="153" as="sourcePoint" />
            <mxPoint x="200" y="148" as="targetPoint" />
          </mxGeometry>
        </mxCell>
        <mxCell id="vQulkStZdgqkO4bHdipe-38" style="edgeStyle=orthogonalEdgeStyle;rounded=0;orthogonalLoop=1;jettySize=auto;html=1;exitX=0.5;exitY=1;exitDx=0;exitDy=0;" edge="1" parent="vQulkStZdgqkO4bHdipe-1" source="vQulkStZdgqkO4bHdipe-26" target="vQulkStZdgqkO4bHdipe-26">
          <mxGeometry relative="1" as="geometry" />
        </mxCell>
        <mxCell id="vQulkStZdgqkO4bHdipe-41" value="extend" style="endArrow=open;endSize=12;dashed=1;html=1;rounded=0;" edge="1" parent="vQulkStZdgqkO4bHdipe-1" source="vQulkStZdgqkO4bHdipe-26" target="vQulkStZdgqkO4bHdipe-7">
          <mxGeometry width="160" relative="1" as="geometry">
            <mxPoint x="290" y="180" as="sourcePoint" />
            <mxPoint x="186" y="156" as="targetPoint" />
          </mxGeometry>
        </mxCell>
        <mxCell id="vQulkStZdgqkO4bHdipe-43" value="Cập nhật phòng" style="ellipse;whiteSpace=wrap;html=1;" vertex="1" parent="vQulkStZdgqkO4bHdipe-1">
          <mxGeometry x="288" y="226" width="100.5" height="16" as="geometry" />
        </mxCell>
        <mxCell id="vQulkStZdgqkO4bHdipe-42" value="Thêm phòng" style="ellipse;whiteSpace=wrap;html=1;" vertex="1" parent="vQulkStZdgqkO4bHdipe-1">
          <mxGeometry x="375.5" y="194" width="82" height="24" as="geometry" />
        </mxCell>
        <mxCell id="vQulkStZdgqkO4bHdipe-44" value="extend" style="endArrow=open;endSize=12;dashed=1;html=1;rounded=0;" edge="1" parent="vQulkStZdgqkO4bHdipe-1" source="vQulkStZdgqkO4bHdipe-31" target="vQulkStZdgqkO4bHdipe-8">
          <mxGeometry width="160" relative="1" as="geometry">
            <mxPoint x="265" y="183" as="sourcePoint" />
            <mxPoint x="190" y="166" as="targetPoint" />
          </mxGeometry>
        </mxCell>
        <mxCell id="vQulkStZdgqkO4bHdipe-45" value="extend" style="endArrow=open;endSize=12;dashed=1;html=1;rounded=0;" edge="1" parent="vQulkStZdgqkO4bHdipe-1" source="vQulkStZdgqkO4bHdipe-42" target="vQulkStZdgqkO4bHdipe-8">
          <mxGeometry width="160" relative="1" as="geometry">
            <mxPoint x="275" y="193" as="sourcePoint" />
            <mxPoint x="200" y="176" as="targetPoint" />
          </mxGeometry>
        </mxCell>
        <mxCell id="vQulkStZdgqkO4bHdipe-46" value="extend" style="endArrow=open;endSize=12;dashed=1;html=1;rounded=0;" edge="1" parent="vQulkStZdgqkO4bHdipe-1" source="vQulkStZdgqkO4bHdipe-43" target="vQulkStZdgqkO4bHdipe-8">
          <mxGeometry width="160" relative="1" as="geometry">
            <mxPoint x="285" y="203" as="sourcePoint" />
            <mxPoint x="210" y="186" as="targetPoint" />
          </mxGeometry>
        </mxCell>
        <mxCell id="vQulkStZdgqkO4bHdipe-47" value="Tìm hợp đồng" style="ellipse;whiteSpace=wrap;html=1;" vertex="1" parent="vQulkStZdgqkO4bHdipe-1">
          <mxGeometry x="385" y="261.5" width="95" height="24" as="geometry" />
        </mxCell>
        <mxCell id="vQulkStZdgqkO4bHdipe-48" value="extend" style="endArrow=open;endSize=12;dashed=1;html=1;rounded=0;" edge="1" parent="vQulkStZdgqkO4bHdipe-1" source="vQulkStZdgqkO4bHdipe-27" target="vQulkStZdgqkO4bHdipe-9">
          <mxGeometry width="160" relative="1" as="geometry">
            <mxPoint x="267" y="265" as="sourcePoint" />
            <mxPoint x="162" y="218" as="targetPoint" />
          </mxGeometry>
        </mxCell>
        <mxCell id="vQulkStZdgqkO4bHdipe-49" value="extend" style="endArrow=open;endSize=12;dashed=1;html=1;rounded=0;" edge="1" parent="vQulkStZdgqkO4bHdipe-1" source="vQulkStZdgqkO4bHdipe-47" target="vQulkStZdgqkO4bHdipe-9">
          <mxGeometry width="160" relative="1" as="geometry">
            <mxPoint x="277" y="275" as="sourcePoint" />
            <mxPoint x="172" y="228" as="targetPoint" />
          </mxGeometry>
        </mxCell>
        <mxCell id="vQulkStZdgqkO4bHdipe-50" value="extend" style="endArrow=open;endSize=12;dashed=1;html=1;rounded=0;" edge="1" parent="vQulkStZdgqkO4bHdipe-1" source="vQulkStZdgqkO4bHdipe-28" target="vQulkStZdgqkO4bHdipe-9">
          <mxGeometry width="160" relative="1" as="geometry">
            <mxPoint x="287" y="285" as="sourcePoint" />
            <mxPoint x="182" y="238" as="targetPoint" />
          </mxGeometry>
        </mxCell>
        <mxCell id="vQulkStZdgqkO4bHdipe-51" value="thêm tiền điện" style="ellipse;whiteSpace=wrap;html=1;" vertex="1" parent="vQulkStZdgqkO4bHdipe-1">
          <mxGeometry x="344" y="307" width="108" height="21" as="geometry" />
        </mxCell>
        <mxCell id="vQulkStZdgqkO4bHdipe-52" value="thêm tiền nước" style="ellipse;whiteSpace=wrap;html=1;" vertex="1" parent="vQulkStZdgqkO4bHdipe-1">
          <mxGeometry x="277" y="333" width="108" height="21" as="geometry" />
        </mxCell>
        <mxCell id="vQulkStZdgqkO4bHdipe-54" value="extend" style="endArrow=open;endSize=12;dashed=1;html=1;rounded=0;" edge="1" parent="vQulkStZdgqkO4bHdipe-1" source="vQulkStZdgqkO4bHdipe-51" target="vQulkStZdgqkO4bHdipe-16">
          <mxGeometry width="160" relative="1" as="geometry">
            <mxPoint x="262" y="342" as="sourcePoint" />
            <mxPoint x="183" y="323" as="targetPoint" />
          </mxGeometry>
        </mxCell>
        <mxCell id="vQulkStZdgqkO4bHdipe-55" value="extend" style="endArrow=open;endSize=12;dashed=1;html=1;rounded=0;" edge="1" parent="vQulkStZdgqkO4bHdipe-1" source="vQulkStZdgqkO4bHdipe-52" target="vQulkStZdgqkO4bHdipe-16">
          <mxGeometry width="160" relative="1" as="geometry">
            <mxPoint x="245" y="372" as="sourcePoint" />
            <mxPoint x="163" y="367" as="targetPoint" />
          </mxGeometry>
        </mxCell>
        <mxCell id="vQulkStZdgqkO4bHdipe-57" value="tìm hóa đơn" style="ellipse;whiteSpace=wrap;html=1;" vertex="1" parent="vQulkStZdgqkO4bHdipe-1">
          <mxGeometry x="334" y="392" width="108" height="21" as="geometry" />
        </mxCell>
        <mxCell id="vQulkStZdgqkO4bHdipe-56" value="thêm hóa đơn" style="ellipse;whiteSpace=wrap;html=1;" vertex="1" parent="vQulkStZdgqkO4bHdipe-1">
          <mxGeometry x="334" y="358" width="108" height="21" as="geometry" />
        </mxCell>
        <mxCell id="vQulkStZdgqkO4bHdipe-58" value="extend" style="endArrow=open;endSize=12;dashed=1;html=1;rounded=0;" edge="1" parent="vQulkStZdgqkO4bHdipe-1" source="vQulkStZdgqkO4bHdipe-56" target="vQulkStZdgqkO4bHdipe-18">
          <mxGeometry width="160" relative="1" as="geometry">
            <mxPoint x="273" y="392" as="sourcePoint" />
            <mxPoint x="189" y="372" as="targetPoint" />
          </mxGeometry>
        </mxCell>
        <mxCell id="vQulkStZdgqkO4bHdipe-59" value="extend" style="endArrow=open;endSize=12;dashed=1;html=1;rounded=0;" edge="1" parent="vQulkStZdgqkO4bHdipe-1" source="vQulkStZdgqkO4bHdipe-57" target="vQulkStZdgqkO4bHdipe-18">
          <mxGeometry width="160" relative="1" as="geometry">
            <mxPoint x="283" y="402" as="sourcePoint" />
            <mxPoint x="199" y="382" as="targetPoint" />
          </mxGeometry>
        </mxCell>
        <mxCell id="vQulkStZdgqkO4bHdipe-60" value="tìm tài khoản" style="ellipse;whiteSpace=wrap;html=1;" vertex="1" parent="vQulkStZdgqkO4bHdipe-1">
          <mxGeometry x="328" y="419.5" width="108" height="21" as="geometry" />
        </mxCell>
        <mxCell id="vQulkStZdgqkO4bHdipe-61" value="chỉnh sửa tài khoản" style="ellipse;whiteSpace=wrap;html=1;" vertex="1" parent="vQulkStZdgqkO4bHdipe-1">
          <mxGeometry x="388.5" y="464" width="108" height="21" as="geometry" />
        </mxCell>
        <mxCell id="vQulkStZdgqkO4bHdipe-62" value="thêm tài khoản" style="ellipse;whiteSpace=wrap;html=1;" vertex="1" parent="vQulkStZdgqkO4bHdipe-1">
          <mxGeometry x="341" y="443" width="108" height="21" as="geometry" />
        </mxCell>
        <mxCell id="vQulkStZdgqkO4bHdipe-63" value="extend" style="endArrow=open;endSize=12;dashed=1;html=1;rounded=0;" edge="1" parent="vQulkStZdgqkO4bHdipe-1" source="vQulkStZdgqkO4bHdipe-60" target="vQulkStZdgqkO4bHdipe-17">
          <mxGeometry width="160" relative="1" as="geometry">
            <mxPoint x="270" y="417" as="sourcePoint" />
            <mxPoint x="164" y="386" as="targetPoint" />
          </mxGeometry>
        </mxCell>
        <mxCell id="vQulkStZdgqkO4bHdipe-64" value="extend" style="endArrow=open;endSize=12;dashed=1;html=1;rounded=0;" edge="1" parent="vQulkStZdgqkO4bHdipe-1" source="vQulkStZdgqkO4bHdipe-62" target="vQulkStZdgqkO4bHdipe-17">
          <mxGeometry width="160" relative="1" as="geometry">
            <mxPoint x="280" y="427" as="sourcePoint" />
            <mxPoint x="174" y="396" as="targetPoint" />
          </mxGeometry>
        </mxCell>
        <mxCell id="vQulkStZdgqkO4bHdipe-65" value="extend" style="endArrow=open;endSize=12;dashed=1;html=1;rounded=0;" edge="1" parent="vQulkStZdgqkO4bHdipe-1" source="vQulkStZdgqkO4bHdipe-61" target="vQulkStZdgqkO4bHdipe-17">
          <mxGeometry width="160" relative="1" as="geometry">
            <mxPoint x="290" y="437" as="sourcePoint" />
            <mxPoint x="184" y="406" as="targetPoint" />
          </mxGeometry>
        </mxCell>
        <mxCell id="vQulkStZdgqkO4bHdipe-66" value="tìm tin tức" style="ellipse;whiteSpace=wrap;html=1;" vertex="1" parent="vQulkStZdgqkO4bHdipe-1">
          <mxGeometry x="306" y="515" width="108" height="21" as="geometry" />
        </mxCell>
        <mxCell id="vQulkStZdgqkO4bHdipe-67" value="cập nhật tin tức" style="ellipse;whiteSpace=wrap;html=1;" vertex="1" parent="vQulkStZdgqkO4bHdipe-1">
          <mxGeometry x="380.5" y="533" width="108" height="21" as="geometry" />
        </mxCell>
        <mxCell id="vQulkStZdgqkO4bHdipe-68" value="xóa tin tức" style="ellipse;whiteSpace=wrap;html=1;" vertex="1" parent="vQulkStZdgqkO4bHdipe-1">
          <mxGeometry x="284.25" y="572" width="108" height="21" as="geometry" />
        </mxCell>
        <mxCell id="vQulkStZdgqkO4bHdipe-69" value="thêm tin tức" style="ellipse;whiteSpace=wrap;html=1;" vertex="1" parent="vQulkStZdgqkO4bHdipe-1">
          <mxGeometry x="298" y="491" width="108" height="21" as="geometry" />
        </mxCell>
        <mxCell id="vQulkStZdgqkO4bHdipe-70" value="extend" style="endArrow=open;endSize=12;dashed=1;html=1;rounded=0;" edge="1" parent="vQulkStZdgqkO4bHdipe-1" source="vQulkStZdgqkO4bHdipe-69" target="vQulkStZdgqkO4bHdipe-20">
          <mxGeometry width="160" relative="1" as="geometry">
            <mxPoint x="255" y="490" as="sourcePoint" />
            <mxPoint x="148" y="444" as="targetPoint" />
          </mxGeometry>
        </mxCell>
        <mxCell id="vQulkStZdgqkO4bHdipe-71" value="extend" style="endArrow=open;endSize=12;dashed=1;html=1;rounded=0;" edge="1" parent="vQulkStZdgqkO4bHdipe-1" source="vQulkStZdgqkO4bHdipe-66" target="vQulkStZdgqkO4bHdipe-20">
          <mxGeometry width="160" relative="1" as="geometry">
            <mxPoint x="265" y="500" as="sourcePoint" />
            <mxPoint x="158" y="454" as="targetPoint" />
          </mxGeometry>
        </mxCell>
        <mxCell id="vQulkStZdgqkO4bHdipe-72" value="extend" style="endArrow=open;endSize=12;dashed=1;html=1;rounded=0;" edge="1" parent="vQulkStZdgqkO4bHdipe-1" source="vQulkStZdgqkO4bHdipe-67" target="vQulkStZdgqkO4bHdipe-20">
          <mxGeometry width="160" relative="1" as="geometry">
            <mxPoint x="275" y="510" as="sourcePoint" />
            <mxPoint x="168" y="464" as="targetPoint" />
          </mxGeometry>
        </mxCell>
        <mxCell id="vQulkStZdgqkO4bHdipe-73" value="extend" style="endArrow=open;endSize=12;dashed=1;html=1;rounded=0;" edge="1" parent="vQulkStZdgqkO4bHdipe-1" source="vQulkStZdgqkO4bHdipe-68" target="vQulkStZdgqkO4bHdipe-20">
          <mxGeometry width="160" relative="1" as="geometry">
            <mxPoint x="285" y="520" as="sourcePoint" />
            <mxPoint x="178" y="474" as="targetPoint" />
          </mxGeometry>
        </mxCell>
        <mxCell id="vQulkStZdgqkO4bHdipe-74" value="tìm báo cáo sự cố" style="ellipse;whiteSpace=wrap;html=1;" vertex="1" parent="vQulkStZdgqkO4bHdipe-1">
          <mxGeometry x="298" y="601" width="108" height="21" as="geometry" />
        </mxCell>
        <mxCell id="vQulkStZdgqkO4bHdipe-75" value="phản hồi" style="ellipse;whiteSpace=wrap;html=1;" vertex="1" parent="vQulkStZdgqkO4bHdipe-1">
          <mxGeometry x="319" y="628" width="108" height="21" as="geometry" />
        </mxCell>
        <mxCell id="vQulkStZdgqkO4bHdipe-76" value="extend" style="endArrow=open;endSize=12;dashed=1;html=1;rounded=0;" edge="1" parent="vQulkStZdgqkO4bHdipe-1" source="vQulkStZdgqkO4bHdipe-74" target="vQulkStZdgqkO4bHdipe-19">
          <mxGeometry width="160" relative="1" as="geometry">
            <mxPoint x="251" y="589" as="sourcePoint" />
            <mxPoint x="153" y="541" as="targetPoint" />
          </mxGeometry>
        </mxCell>
        <mxCell id="vQulkStZdgqkO4bHdipe-77" value="extend" style="endArrow=open;endSize=12;dashed=1;html=1;rounded=0;" edge="1" parent="vQulkStZdgqkO4bHdipe-1" source="vQulkStZdgqkO4bHdipe-75" target="vQulkStZdgqkO4bHdipe-19">
          <mxGeometry width="160" relative="1" as="geometry">
            <mxPoint x="261" y="599" as="sourcePoint" />
            <mxPoint x="163" y="551" as="targetPoint" />
          </mxGeometry>
        </mxCell>
        <mxCell id="vQulkStZdgqkO4bHdipe-79" value="thêm thông báo" style="ellipse;whiteSpace=wrap;html=1;" vertex="1" parent="vQulkStZdgqkO4bHdipe-1">
          <mxGeometry x="277" y="665" width="108" height="21" as="geometry" />
        </mxCell>
        <mxCell id="vQulkStZdgqkO4bHdipe-80" value="tìm thông báo" style="ellipse;whiteSpace=wrap;html=1;" vertex="1" parent="vQulkStZdgqkO4bHdipe-1">
          <mxGeometry x="251" y="704" width="108" height="21" as="geometry" />
        </mxCell>
        <mxCell id="vQulkStZdgqkO4bHdipe-81" value="extend" style="endArrow=open;endSize=12;dashed=1;html=1;rounded=0;" edge="1" parent="vQulkStZdgqkO4bHdipe-1" source="vQulkStZdgqkO4bHdipe-79" target="vQulkStZdgqkO4bHdipe-21">
          <mxGeometry width="160" relative="1" as="geometry">
            <mxPoint x="307" y="626" as="sourcePoint" />
            <mxPoint x="236" y="618" as="targetPoint" />
          </mxGeometry>
        </mxCell>
        <mxCell id="vQulkStZdgqkO4bHdipe-82" value="extend" style="endArrow=open;endSize=12;dashed=1;html=1;rounded=0;" edge="1" parent="vQulkStZdgqkO4bHdipe-1" source="vQulkStZdgqkO4bHdipe-80" target="vQulkStZdgqkO4bHdipe-21">
          <mxGeometry width="160" relative="1" as="geometry">
            <mxPoint x="317" y="636" as="sourcePoint" />
            <mxPoint x="246" y="628" as="targetPoint" />
          </mxGeometry>
        </mxCell>
        <mxCell id="vQulkStZdgqkO4bHdipe-83" value="include" style="endArrow=open;endSize=12;dashed=1;html=1;rounded=0;" edge="1" parent="vQulkStZdgqkO4bHdipe-1" source="vQulkStZdgqkO4bHdipe-6" target="vQulkStZdgqkO4bHdipe-5">
          <mxGeometry width="160" relative="1" as="geometry">
            <mxPoint x="347" y="229" as="sourcePoint" />
            <mxPoint x="535" y="52" as="targetPoint" />
            <Array as="points">
              <mxPoint x="548" y="56" />
            </Array>
          </mxGeometry>
        </mxCell>
        <mxCell id="vQulkStZdgqkO4bHdipe-84" value="include" style="endArrow=open;endSize=12;dashed=1;html=1;rounded=0;" edge="1" parent="vQulkStZdgqkO4bHdipe-1" source="vQulkStZdgqkO4bHdipe-7" target="vQulkStZdgqkO4bHdipe-5">
          <mxGeometry width="160" relative="1" as="geometry">
            <mxPoint x="172" y="83" as="sourcePoint" />
            <mxPoint x="544" y="392" as="targetPoint" />
            <Array as="points">
              <mxPoint x="474" y="151" />
            </Array>
          </mxGeometry>
        </mxCell>
        <mxCell id="vQulkStZdgqkO4bHdipe-85" value="include" style="endArrow=open;endSize=12;dashed=1;html=1;rounded=0;" edge="1" parent="vQulkStZdgqkO4bHdipe-1" source="vQulkStZdgqkO4bHdipe-8" target="vQulkStZdgqkO4bHdipe-5">
          <mxGeometry width="160" relative="1" as="geometry">
            <mxPoint x="182" y="93" as="sourcePoint" />
            <mxPoint x="554" y="402" as="targetPoint" />
            <Array as="points">
              <mxPoint x="470" y="234" />
            </Array>
          </mxGeometry>
        </mxCell>
        <mxCell id="vQulkStZdgqkO4bHdipe-86" value="include" style="endArrow=open;endSize=12;dashed=1;html=1;rounded=0;" edge="1" parent="vQulkStZdgqkO4bHdipe-1" source="vQulkStZdgqkO4bHdipe-9" target="vQulkStZdgqkO4bHdipe-5">
          <mxGeometry width="160" relative="1" as="geometry">
            <mxPoint x="192" y="103" as="sourcePoint" />
            <mxPoint x="564" y="412" as="targetPoint" />
            <Array as="points">
              <mxPoint x="439" y="296" />
            </Array>
          </mxGeometry>
        </mxCell>
        <mxCell id="vQulkStZdgqkO4bHdipe-87" value="include" style="endArrow=open;endSize=12;dashed=1;html=1;rounded=0;" edge="1" parent="vQulkStZdgqkO4bHdipe-1" source="vQulkStZdgqkO4bHdipe-18" target="vQulkStZdgqkO4bHdipe-5">
          <mxGeometry width="160" relative="1" as="geometry">
            <mxPoint x="202" y="113" as="sourcePoint" />
            <mxPoint x="574" y="422" as="targetPoint" />
            <Array as="points">
              <mxPoint x="403" y="386" />
            </Array>
          </mxGeometry>
        </mxCell>
        <mxCell id="vQulkStZdgqkO4bHdipe-88" value="include" style="endArrow=open;endSize=12;dashed=1;html=1;rounded=0;" edge="1" parent="vQulkStZdgqkO4bHdipe-1" source="vQulkStZdgqkO4bHdipe-17" target="vQulkStZdgqkO4bHdipe-5">
          <mxGeometry width="160" relative="1" as="geometry">
            <mxPoint x="212" y="123" as="sourcePoint" />
            <mxPoint x="584" y="432" as="targetPoint" />
            <Array as="points">
              <mxPoint x="500" y="504" />
            </Array>
          </mxGeometry>
        </mxCell>
        <mxCell id="vQulkStZdgqkO4bHdipe-89" value="include" style="endArrow=open;endSize=12;dashed=1;html=1;rounded=0;" edge="1" parent="vQulkStZdgqkO4bHdipe-1" source="vQulkStZdgqkO4bHdipe-20" target="vQulkStZdgqkO4bHdipe-5">
          <mxGeometry width="160" relative="1" as="geometry">
            <mxPoint x="222" y="133" as="sourcePoint" />
            <mxPoint x="594" y="442" as="targetPoint" />
            <Array as="points">
              <mxPoint x="491" y="586" />
            </Array>
          </mxGeometry>
        </mxCell>
        <mxCell id="vQulkStZdgqkO4bHdipe-90" value="include" style="endArrow=open;endSize=12;dashed=1;html=1;rounded=0;" edge="1" parent="vQulkStZdgqkO4bHdipe-1" source="vQulkStZdgqkO4bHdipe-19" target="vQulkStZdgqkO4bHdipe-5">
          <mxGeometry width="160" relative="1" as="geometry">
            <mxPoint x="232" y="143" as="sourcePoint" />
            <mxPoint x="604" y="452" as="targetPoint" />
            <Array as="points">
              <mxPoint x="500" y="702" />
            </Array>
          </mxGeometry>
        </mxCell>
        <mxCell id="vQulkStZdgqkO4bHdipe-91" value="include" style="endArrow=open;endSize=12;dashed=1;html=1;rounded=0;" edge="1" parent="vQulkStZdgqkO4bHdipe-1" source="vQulkStZdgqkO4bHdipe-21" target="vQulkStZdgqkO4bHdipe-5">
          <mxGeometry width="160" relative="1" as="geometry">
            <mxPoint x="242" y="153" as="sourcePoint" />
            <mxPoint x="614" y="462" as="targetPoint" />
            <Array as="points">
              <mxPoint x="528" y="744" />
            </Array>
          </mxGeometry>
        </mxCell>
        <mxCell id="vQulkStZdgqkO4bHdipe-92" value="include" style="endArrow=open;endSize=12;dashed=1;html=1;rounded=0;" edge="1" parent="vQulkStZdgqkO4bHdipe-1" source="vQulkStZdgqkO4bHdipe-22" target="vQulkStZdgqkO4bHdipe-5">
          <mxGeometry width="160" relative="1" as="geometry">
            <mxPoint x="204" y="673" as="sourcePoint" />
            <mxPoint x="543" y="423" as="targetPoint" />
            <Array as="points">
              <mxPoint x="549" y="788" />
            </Array>
          </mxGeometry>
        </mxCell>
        <mxCell id="vQulkStZdgqkO4bHdipe-93" value="Đăng xuất" style="ellipse;whiteSpace=wrap;html=1;" vertex="1" parent="vQulkStZdgqkO4bHdipe-1">
          <mxGeometry x="24" y="770" width="106" height="37" as="geometry" />
        </mxCell>
        <mxCell id="vQulkStZdgqkO4bHdipe-94" value="include" style="endArrow=open;endSize=12;dashed=1;html=1;rounded=0;" edge="1" parent="vQulkStZdgqkO4bHdipe-1" source="vQulkStZdgqkO4bHdipe-93" target="vQulkStZdgqkO4bHdipe-5">
          <mxGeometry width="160" relative="1" as="geometry">
            <mxPoint x="161" y="721" as="sourcePoint" />
            <mxPoint x="544" y="423" as="targetPoint" />
            <Array as="points">
              <mxPoint x="591" y="817" />
            </Array>
          </mxGeometry>
        </mxCell>
        <mxCell id="vQulkStZdgqkO4bHdipe-4" value="Quản lý" style="shape=umlActor;verticalLabelPosition=bottom;verticalAlign=top;html=1;" vertex="1" parent="1">
          <mxGeometry x="31" y="670" width="30" height="60" as="geometry" />
        </mxCell>
        <mxCell id="vQulkStZdgqkO4bHdipe-95" value="" style="endArrow=none;html=1;rounded=0;" edge="1" parent="1" source="vQulkStZdgqkO4bHdipe-4" target="vQulkStZdgqkO4bHdipe-6">
          <mxGeometry width="50" height="50" relative="1" as="geometry">
            <mxPoint x="496" y="773" as="sourcePoint" />
            <mxPoint x="546" y="723" as="targetPoint" />
          </mxGeometry>
        </mxCell>
        <mxCell id="vQulkStZdgqkO4bHdipe-96" value="" style="endArrow=none;html=1;rounded=0;" edge="1" parent="1" source="vQulkStZdgqkO4bHdipe-4" target="vQulkStZdgqkO4bHdipe-7">
          <mxGeometry width="50" height="50" relative="1" as="geometry">
            <mxPoint x="69" y="680" as="sourcePoint" />
            <mxPoint x="201" y="371" as="targetPoint" />
          </mxGeometry>
        </mxCell>
        <mxCell id="vQulkStZdgqkO4bHdipe-97" value="" style="endArrow=none;html=1;rounded=0;" edge="1" parent="1" source="vQulkStZdgqkO4bHdipe-4" target="vQulkStZdgqkO4bHdipe-8">
          <mxGeometry width="50" height="50" relative="1" as="geometry">
            <mxPoint x="79" y="690" as="sourcePoint" />
            <mxPoint x="211" y="381" as="targetPoint" />
          </mxGeometry>
        </mxCell>
        <mxCell id="vQulkStZdgqkO4bHdipe-98" value="" style="endArrow=none;html=1;rounded=0;" edge="1" parent="1" source="vQulkStZdgqkO4bHdipe-4" target="vQulkStZdgqkO4bHdipe-9">
          <mxGeometry width="50" height="50" relative="1" as="geometry">
            <mxPoint x="89" y="700" as="sourcePoint" />
            <mxPoint x="221" y="391" as="targetPoint" />
          </mxGeometry>
        </mxCell>
        <mxCell id="vQulkStZdgqkO4bHdipe-99" value="" style="endArrow=none;html=1;rounded=0;" edge="1" parent="1" source="vQulkStZdgqkO4bHdipe-4" target="vQulkStZdgqkO4bHdipe-16">
          <mxGeometry width="50" height="50" relative="1" as="geometry">
            <mxPoint x="99" y="710" as="sourcePoint" />
            <mxPoint x="231" y="401" as="targetPoint" />
          </mxGeometry>
        </mxCell>
        <mxCell id="vQulkStZdgqkO4bHdipe-100" value="" style="endArrow=none;html=1;rounded=0;" edge="1" parent="1" source="vQulkStZdgqkO4bHdipe-4" target="vQulkStZdgqkO4bHdipe-18">
          <mxGeometry width="50" height="50" relative="1" as="geometry">
            <mxPoint x="109" y="720" as="sourcePoint" />
            <mxPoint x="241" y="411" as="targetPoint" />
          </mxGeometry>
        </mxCell>
        <mxCell id="vQulkStZdgqkO4bHdipe-101" value="" style="endArrow=none;html=1;rounded=0;" edge="1" parent="1" source="vQulkStZdgqkO4bHdipe-4" target="vQulkStZdgqkO4bHdipe-17">
          <mxGeometry width="50" height="50" relative="1" as="geometry">
            <mxPoint x="119" y="730" as="sourcePoint" />
            <mxPoint x="251" y="421" as="targetPoint" />
          </mxGeometry>
        </mxCell>
        <mxCell id="vQulkStZdgqkO4bHdipe-102" value="" style="endArrow=none;html=1;rounded=0;" edge="1" parent="1" source="vQulkStZdgqkO4bHdipe-4" target="vQulkStZdgqkO4bHdipe-20">
          <mxGeometry width="50" height="50" relative="1" as="geometry">
            <mxPoint x="129" y="740" as="sourcePoint" />
            <mxPoint x="261" y="431" as="targetPoint" />
          </mxGeometry>
        </mxCell>
        <mxCell id="vQulkStZdgqkO4bHdipe-103" value="" style="endArrow=none;html=1;rounded=0;" edge="1" parent="1" source="vQulkStZdgqkO4bHdipe-4" target="vQulkStZdgqkO4bHdipe-19">
          <mxGeometry width="50" height="50" relative="1" as="geometry">
            <mxPoint x="139" y="750" as="sourcePoint" />
            <mxPoint x="271" y="441" as="targetPoint" />
          </mxGeometry>
        </mxCell>
        <mxCell id="vQulkStZdgqkO4bHdipe-104" value="" style="endArrow=none;html=1;rounded=0;" edge="1" parent="1" source="vQulkStZdgqkO4bHdipe-4" target="vQulkStZdgqkO4bHdipe-21">
          <mxGeometry width="50" height="50" relative="1" as="geometry">
            <mxPoint x="149" y="760" as="sourcePoint" />
            <mxPoint x="281" y="451" as="targetPoint" />
          </mxGeometry>
        </mxCell>
        <mxCell id="vQulkStZdgqkO4bHdipe-105" value="" style="endArrow=none;html=1;rounded=0;" edge="1" parent="1" source="vQulkStZdgqkO4bHdipe-4" target="vQulkStZdgqkO4bHdipe-22">
          <mxGeometry width="50" height="50" relative="1" as="geometry">
            <mxPoint x="159" y="770" as="sourcePoint" />
            <mxPoint x="291" y="461" as="targetPoint" />
          </mxGeometry>
        </mxCell>
        <mxCell id="vQulkStZdgqkO4bHdipe-106" value="" style="endArrow=none;html=1;rounded=0;" edge="1" parent="1" source="vQulkStZdgqkO4bHdipe-4" target="vQulkStZdgqkO4bHdipe-93">
          <mxGeometry width="50" height="50" relative="1" as="geometry">
            <mxPoint x="169" y="780" as="sourcePoint" />
            <mxPoint x="301" y="471" as="targetPoint" />
          </mxGeometry>
        </mxCell>
        <mxCell id="vQulkStZdgqkO4bHdipe-107" value="" style="endArrow=none;html=1;rounded=0;" edge="1" parent="1" source="vQulkStZdgqkO4bHdipe-4" target="vQulkStZdgqkO4bHdipe-5">
          <mxGeometry width="50" height="50" relative="1" as="geometry">
            <mxPoint x="450" y="757" as="sourcePoint" />
            <mxPoint x="500" y="707" as="targetPoint" />
            <Array as="points">
              <mxPoint x="560" y="684" />
            </Array>
          </mxGeometry>
        </mxCell>
      </root>
    </mxGraphModel>
  </diagram>
</mxfile>
